<?xml version="1.0" standalone="no"?>
<!DOCTYPE svg PUBLIC "-//W3C//DTD SVG 1.1//EN" "http://www.w3.org/Graphics/SVG/1.1/DTD/svg11.dtd">
<svg xmlns="http://www.w3.org/2000/svg">
<defs >
<font id="Philosopher" horiz-adv-x="540" ><font-face
    font-family="Philosopher"
    units-per-em="1000"
    panose-1="2 0 8 3 0 0 0 2 0 4"
    ascent="864"
    descent="-220"
    alphabetic="0" />
<glyph unicode=" " glyph-name="space" horiz-adv-x="250" />
<glyph unicode="!" glyph-name="exclam" horiz-adv-x="245" d="M169 155H75L56 660H189L169 155ZM183 47Q183 20 167 3T122 -14Q93 -14 77 3T61 47Q61 74 77 91T122 108Q151 108 167 91T183 47Z" />
<glyph unicode="&quot;" glyph-name="quotedbl" horiz-adv-x="390" d="M245 390L215 660H345L315 390H245ZM75 390L45 660H175L145 390H75Z" />
<glyph unicode="#" glyph-name="numbersign" horiz-adv-x="699" d="M116 0L152 172H29V237H165L202 413H89V478H216L257 675H356L315 478H442L483 675H582L541 478H669V413H527L491 237H609V172H477L441 0H342L378 172H251L215 0H116ZM265 237H391L428 413H301L265 237Z" />
<glyph unicode="$" glyph-name="dollar" horiz-adv-x="550" d="M305 676Q341 673 375 663T435 638T477 603T493 558V441H465Q450 536 410 580T305 631V390L388 341Q456 301 487 263T519 169Q519 90 464 41T305 -16V-80H235V-15Q198 -12 163 -3T101 21T58 56T42
103V220H70Q85 126 125 82T235 29V287L167 328Q99 368 71 410T43 507Q43 579 94 624T235 677V735H305V676ZM393 125Q393 164 370 191T305 245V31Q345 39 369 62T393 125ZM161 536Q161 500 180 478T235 432V628Q200 618 181 595T161 536Z" />
<glyph unicode="%" glyph-name="percent" horiz-adv-x="755" d="M83 0L567 660H673L189 0H83ZM568 271Q641 271 683 235T726 133Q726 67 684 31T568 -5Q493 -5 451 31T408 133Q408 199 450 235T568 271ZM566 231Q528 231 508 206T488 133Q488 85 508 60T567 35Q606
35 626 60T646 133Q646 181 626 206T566 231ZM190 665Q263 665 305 629T348 527Q348 461 306 425T190 389Q115 389 73 425T30 527Q30 593 72 629T190 665ZM188 625Q150 625 130 600T110 527Q110 479 130 454T189 429Q228 429 248 454T268 527Q268 575 248 600T188
625Z" />
<glyph unicode="&amp;" glyph-name="ampersand" horiz-adv-x="636" d="M32 135Q32 169 44 196T78 247T128 289T190 326Q183 332 165 350T127 396T94 456T79 524Q79 598 132 639T279 680Q370 680 417 641T464 540Q464 509 452 482T418 429T368 382T309 340L494
140Q512 160 527 182T554 221Q567 241 578 261L616 236Q607 215 594 193Q583 174 567 151T528 103L625 0H489L451 38Q451 38 439 29T403 9T348 -11T279 -20Q210 -20 163 -8T86 26T45 75T32 135ZM288 20Q318 20 343 28T385 46Q405 57 421 72Q370 128 326 175T230
278Q203 254 183 221T162 145Q162 88 193 54T288 20ZM209 524Q209 497 215 475T231 434T252 403T272 381Q304 410 324 445T344 530Q344 561 338 582T323 616T302 634T279 640Q245 640 227 616T209 524Z" />
<glyph unicode="&apos;" glyph-name="quotesingle" horiz-adv-x="220" d="M75 390L45 660H175L145 390H75Z" />
<glyph unicode="(" glyph-name="parenleft" horiz-adv-x="320" d="M24 240Q24 383 93 496T297 700L311 680Q267 641 237 593T189 488T162 370T154 240Q154 172 162 110T188 -8T237 -112T311 -200L297 -220Q163 -129 94 -16T24 240Z" />
<glyph unicode=")" glyph-name="parenright" horiz-adv-x="321" d="M297 240Q297 97 228 -16T24 -220L10 -200Q54 -161 84 -113T132 -8T159 110T167 240Q167 307 159 369T133 488T84 592T10 680L24 700Q158 609 227 496T297 240Z" />
<glyph unicode="*" glyph-name="asterisk" horiz-adv-x="434" d="M161 660H273L249 539L347 628L396 542L252 492L396 442L347 356L248 446L273 324H161L185 445L87 356L38 442L182 492L38 542L87 628L185 539L161 660Z" />
<glyph unicode="+" glyph-name="plus" horiz-adv-x="546" d="M228 295H31V365H228V560H318V365H515V295H318V100H228V295Z" />
<glyph unicode="," glyph-name="comma" horiz-adv-x="228" d="M112 -14Q83 -14 67 3T51 47Q51 74 67 91T112 108Q145 108 161 84T178 30Q178 -27 153 -72T63 -160L45 -136Q57 -128 71 -116T98 -88T119 -53T127 -11L112 -14Z" />
<glyph unicode="-" glyph-name="hyphen" horiz-adv-x="395" d="M58 312H337V217H58V312Z" />
<glyph unicode="." glyph-name="period" horiz-adv-x="224" d="M173 47Q173 20 157 3T112 -14Q83 -14 67 3T51 47Q51 74 67 91T112 108Q141 108 157 91T173 47Z" />
<glyph unicode="/" glyph-name="slash" horiz-adv-x="475" d="M21 0L342 660H454L133 0H21Z" />
<glyph unicode="0" glyph-name="zero" horiz-adv-x="606" d="M303 635Q240 635 212 562T183 330Q183 172 211 99T303 25Q366 25 394 98T423 330Q423 488 395 561T303 635ZM303 680Q375 680 424 655T504 583T549 473T563 330Q563 252 549 188T505 77T425 6T303
-20Q231 -20 182 5T102 77T57 187T43 330Q43 408 57 472T101 583T181 654T303 680Z" />
<glyph unicode="1" glyph-name="one" horiz-adv-x="323" d="M249 0H119V542L32 486L8 517L162 660H249V0Z" />
<glyph unicode="2" glyph-name="two" horiz-adv-x="539" d="M41 0V65Q62 86 93 115T159 178T227 251T289 329T333 409T350 487Q350 526 341 554T316 600T281 626T240 635Q177 635 134 593T76 460H41Q41 498 44 537T65 600Q92 633 144 656T260 680Q294 680 334
673T409 645T467 586T490 487Q490 440 468 394T410 304T333 220T250 147T177 87T128 45H335Q395 45 427 73T460 155H490V80Q490 65 487 51T474 25T448 7T405 0H41Z" />
<glyph unicode="3" glyph-name="three" horiz-adv-x="543" d="M209 615Q149 615 117 587T84 505H54V580Q54 595 57 609T70 635T96 653T139 660H477V615L228 381Q228 381 235 382T251 383T272 384T292 385Q326 385 364 375T436 341T490 279T512 185Q512 122 486
82T423 20T346 -11T277 -20Q229 -20 192 -13T125 9T72 44T27 88L55 117Q97 70 143 48T233 25Q262 25 287 34T331 62T361 112T372 185Q372 225 362 254T335 303T294 331T244 340Q221 340 202 337T169 330Q152 326 139 321L115 359L388 615H209Z" />
<glyph unicode="4" glyph-name="four" horiz-adv-x="572" d="M459 0H329V170H9V210L355 660H459V215H549V170H459V0ZM329 215V543L78 215H329Z" />
<glyph unicode="5" glyph-name="five" horiz-adv-x="546" d="M262 390Q301 390 346 381T430 350T494 288T520 190Q520 127 494 87T428 22T345 -11T265 -20Q224 -20 191 -13T131 9T81 43T37 88L66 114Q104 67 151 46T242 25Q271 25 296 34T340 63T369 114T380 190Q380
268 339 306T222 344Q201 344 179 341T139 332Q118 327 97 321L57 360L68 660H457V616H184L175 385Q190 386 205 387Q218 388 233 389T262 390Z" />
<glyph unicode="6" glyph-name="six" horiz-adv-x="560" d="M44 330Q44 511 114 595T324 680Q358 680 387 675T438 663Q464 655 484 646L478 618Q455 622 432 626Q412 629 389 632T344 635Q269 635 224 574T179 385Q196 398 217 409Q235 418 261 425T319 433Q377
433 417 417T482 370T518 298T529 205Q529 161 514 121T470 49T396 -1T294 -20Q169 -20 107 68T44 330ZM289 388Q266 388 246 381T211 364T188 346T179 337Q179 254 187 195T210 98T246 43T294 25Q318 25 337 39T368 78T387 135T394 205Q394 294 370 341T289 388Z"
/>
<glyph unicode="7" glyph-name="seven" horiz-adv-x="473" d="M217 0H96L346 615H176Q116 615 84 587T51 505H21V580Q21 595 24 609T37 635T63 653T106 660H467V615L217 0Z" />
<glyph unicode="8" glyph-name="eight" horiz-adv-x="578" d="M514 518Q514 489 504 465T475 421T432 386T379 358Q410 341 439 322T490 280T525 228T539 162Q539 112 520 78T466 22T387 -10T289 -20Q238 -20 193 -11T113 20T59 73T39 152Q39 188 53 215T90 265T143
304T206 335Q177 351 151 368T106 405T75 451T64 508Q64 557 82 590T130 643T202 671T289 680Q335 680 376 672T448 645T496 595T514 518ZM404 142Q404 173 393 197T361 242T315 279T259 311Q221 291 198 256T174 152Q174 86 206 56T289 25Q340 25 372 54T404 142ZM199
528Q199 504 209 484T237 445T278 412T327 384Q353 404 366 433T379 518Q379 552 371 575T349 611T319 629T289 635Q275 635 259 630T230 613T208 580T199 528Z" />
<glyph unicode="9" glyph-name="nine" horiz-adv-x="560" d="M516 330Q516 148 446 64T236 -20Q201 -20 173 -15T122 -3Q96 4 76 14L82 42Q105 37 128 33Q148 30 171 28T216 25Q291 25 336 86T381 275Q364 262 343 251Q325 242 299 235T241 227Q182 227 142 243T78
290T42 362T31 455Q31 499 46 539T90 611T164 661T266 680Q391 680 453 592T516 330ZM271 272Q293 272 313 279T348 296T372 314T381 323Q381 406 373 465T350 562T314 617T266 635Q242 635 223 621T192 582T173 525T166 455Q166 366 190 319T271 272Z" />
<glyph unicode=":" glyph-name="colon" horiz-adv-x="238" d="M180 47Q180 20 164 3T119 -14Q90 -14 74 3T58 47Q58 74 74 91T119 108Q148 108 164 91T180 47ZM180 400Q180 373 164 356T119 339Q90 339 74 356T58 400Q58 427 74 444T119 461Q148 461 164 444T180 400Z" />
<glyph unicode=";" glyph-name="semicolon" horiz-adv-x="249" d="M185 400Q185 373 169 356T124 339Q95 339 79 356T63 400Q63 427 79 444T124 461Q153 461 169 444T185 400ZM124 -14Q95 -14 79 3T63 47Q63 74 79 91T124 108Q157 108 173 84T190 30Q190 -27 165
-72T75 -160L57 -136Q69 -128 83 -116T110 -88T131 -53T139 -11L124 -14Z" />
<glyph unicode="&lt;" glyph-name="less" horiz-adv-x="610" d="M29 370L549 596V505L157 335L549 165V74L29 300V370Z" />
<glyph unicode="=" glyph-name="equal" horiz-adv-x="665" d="M58 455H607V385H58V455ZM58 275H607V205H58V275Z" />
<glyph unicode="&gt;" glyph-name="greater" horiz-adv-x="610" d="M581 300L61 74V165L453 335L61 505V596L581 370V300Z" />
<glyph unicode="?" glyph-name="question" horiz-adv-x="498" d="M225 635Q166 635 122 592T59 447H29Q29 491 32 532T55 599Q69 615 90 629T137 655T194 673T255 680Q301 680 340 667T407 630T452 569T469 487Q469 445 455 414T420 359T374 313T327 268T289 218T270
156H202Q205 211 225 249T268 321T310 393T329 487Q329 529 321 557T300 603T267 628T225 635ZM297 47Q297 20 281 3T236 -14Q207 -14 191 3T175 47Q175 74 191 91T236 108Q265 108 281 91T297 47Z" />
<glyph unicode="@" glyph-name="at" horiz-adv-x="877" d="M414 450Q380 450 353 430T314 360H259Q259 429 295 465Q310 480 349 487T434 495Q530 495 582 443T635 285V102Q635 80 644 66T675 51Q698 51 717 61T749 97T769 164T776 270Q776 359 752 427T684 542T577
611T440 635Q365 635 303 611T197 539T128 419T104 250Q104 153 128 81T196 -39T303 -111T440 -135Q535 -135 613 -111T757 -40L783 -80Q720 -124 637 -152T440 -180Q350 -180 276 -153T148 -71T64 63T34 250Q34 356 64 436T147 571T275 652T440 680Q530 680 604
653T732 574T816 445T846 270Q846 139 795 72T635 5Q622 5 605 6T569 12T535 29T510 60H505Q495 44 479 32Q465 21 444 13T390 5Q307 5 264 42T220 140Q220 174 232 201T274 247T357 277T490 288H505Q505 337 499 368T480 418T452 443T414 450ZM505 242H490Q449
242 422 236T379 218T357 186T350 140Q350 55 420 55Q443 55 458 65T485 87Q497 101 505 120V242Z" />
<glyph unicode="A" glyph-name="A" horiz-adv-x="647" d="M572 126Q590 82 616 56T676 26V1Q668 -1 654 -2T628 -4Q604 -4 577 0T523 18T473 57T431 126L408 182H142L60 0H8L303 660H348L572 126ZM163 227H389L279 488L163 227Z" />
<glyph unicode="B" glyph-name="B" horiz-adv-x="644" d="M285 620Q273 620 262 619T243 616Q233 614 225 613V361H300Q361 361 400 390T440 490Q440 527 427 552T392 592T342 613T285 620ZM95 530Q95 575 83 602T25 630H15V660H285Q332 660 384 655T479 632T551
579T580 485Q580 464 572 442T546 401T502 366T441 341Q490 336 522 322T574 286T602 239T610 183Q610 126 584 90T516 34T421 7T315 0H95V530ZM300 40Q383 40 426 76T470 178Q470 316 300 316H225V50Q234 47 245 45Q265 40 295 40H300Z" />
<glyph unicode="C" glyph-name="C" horiz-adv-x="679" d="M600 447Q581 538 531 586T397 635Q351 635 311 620T241 569T194 472T177 320Q177 263 189 210T227 115T295 50T397 25Q466 25 525 61T620 168L655 141Q608 58 540 19T367 -20Q288 -20 227 6T123 78T59
186T37 320Q37 396 62 461T131 575T235 652T367 680Q461 680 518 656T604 599Q624 573 627 532T630 447H600Z" />
<glyph unicode="D" glyph-name="D" horiz-adv-x="736" d="M300 620Q285 620 272 619T247 616Q235 614 225 613V47Q235 45 247 43Q268 40 300 40H310Q362 40 406 60T482 117T532 209T550 330Q550 396 533 449T483 541T407 599T308 620H300ZM287 660Q390 660 467
638T596 573T674 471T700 334Q700 260 675 199T601 93T480 25T313 0H95V530Q95 575 83 602T25 630H15V660H287Z" />
<glyph unicode="E" glyph-name="E" horiz-adv-x="600" d="M456 660Q482 660 498 653T524 635T537 610T541 580V495H511Q511 559 479 587T386 615H225V365H485V320H225V45H396Q451 45 489 69T554 159L581 149L552 70Q541 38 524 19T465 0H95V530Q95 575 83 602T25
630H15V660H456Z" />
<glyph unicode="F" glyph-name="F" horiz-adv-x="539" d="M434 660Q460 660 476 653T502 635T515 610T519 580V495H489Q489 560 457 587T364 615H225V360H445V315H225V0H95V530Q95 575 83 602T25 630H15V660H434Z" />
<glyph unicode="G" glyph-name="G" horiz-adv-x="734" d="M660 47Q602 12 537 -4T395 -20Q317 -20 251 8T137 84T62 198T35 340Q35 412 58 474T125 582T229 654T365 680Q459 680 519 656T607 599Q617 586 622 569T629 534T632 496T633 460H603Q584 552 533 593T395
635Q335 635 294 611T226 545T187 451T175 340Q175 249 192 188T239 89T309 36T395 20Q440 20 472 27T530 46V224Q530 245 536 266T563 305T622 334T724 346V321Q690 321 675 296T660 226V47Z" />
<glyph unicode="H" glyph-name="H" horiz-adv-x="720" d="M495 660H625V130Q625 85 637 58T695 30H705V0H585Q559 0 542 6T514 27T499 67T495 130V320H225V0H95V530Q95 575 83 602T25 630H15V660H135Q161 660 178 654T206 632T221 592T225 530V365H495V660Z" />
<glyph unicode="I" glyph-name="I" horiz-adv-x="304" d="M79 660H209V130Q209 85 221 58T279 30H289V0H169Q143 0 126 6T98 27T83 67T79 130V660Z" />
<glyph unicode="J" glyph-name="J" horiz-adv-x="278" d="M204 83Q204 18 195 -24T160 -91T92 -127T-19 -137V-107Q3 -104 20 -94T50 -63T68 -6T74 83V660H204V83Z" />
<glyph unicode="K" glyph-name="K" horiz-adv-x="693" d="M95 530Q95 575 83 602T25 630H15V660H135Q161 660 178 654T206 632T221 592T226 530V340L399 555Q415 576 433 595T474 628T521 651T576 660H646V625Q589 625 543 611T463 554L314 370L545 130Q564 109
586 91T629 59T669 35T704 24V0Q693 -4 674 -7T631 -10Q603 -10 575 -6T517 12T455 49T387 110L226 278V0H96L95 530Z" />
<glyph unicode="L" glyph-name="L" horiz-adv-x="570" d="M570 45V0H95V530Q95 575 83 602T25 630H15V660H135Q161 660 178 654T206 632T221 592T225 530V45H570Z" />
<glyph unicode="M" glyph-name="M" horiz-adv-x="867" d="M774 170Q774 79 789 34T847 -20V-45Q738 -45 691 6T644 170V524L425 0H392L124 544V0H74V660H196L438 169L643 660H774V170Z" />
<glyph unicode="N" glyph-name="N" horiz-adv-x="692" d="M568 200V660H618V-3H572L148 495V0H98V540Q98 559 94 575T80 604T52 623T8 630H3V660H73Q130 660 165 645T224 600L568 200Z" />
<glyph unicode="O" glyph-name="O" horiz-adv-x="733" d="M558 330Q558 476 508 555T367 635Q276 635 227 556T177 330Q177 184 226 105T367 25Q458 25 508 104T558 330ZM37 330Q37 404 60 468T127 579T231 653T367 680Q442 680 502 653T606 579T672 468T696 330Q696
256 673 192T606 81T503 7T367 -20Q292 -20 232 7T128 81T61 192T37 330Z" />
<glyph unicode="P" glyph-name="P" horiz-adv-x="577" d="M290 620Q278 620 266 619T245 616Q234 614 225 613V307H285Q310 307 334 314T378 339T408 387T420 464Q420 510 409 540T379 588T337 613T290 620ZM290 660Q312 660 341 658T400 649T458 628T510 593T546
538T560 459Q560 416 547 385T511 333T462 298T409 278T359 269T320 267H225V0H95V530Q95 575 83 602T25 630H15V660H290Z" />
<glyph unicode="Q" glyph-name="Q" horiz-adv-x="735" d="M38 330Q38 404 61 468T128 579T232 653T368 680Q443 680 503 653T607 579T673 468T697 330Q697 268 681 213T634 114T561 39T463 -7Q476 -43 501 -74T559 -129T627 -166T693 -179V-205Q636 -205 579 -195T467
-160T361 -98T264 -4Q212 12 170 43T99 118T54 216T38 330ZM559 330Q559 476 509 555T368 635Q277 635 228 556T178 330Q178 184 227 105T368 25Q459 25 509 104T559 330Z" />
<glyph unicode="R" glyph-name="R" horiz-adv-x="616" d="M291 620Q279 620 267 619T246 616Q235 614 226 613V342H286Q310 342 334 349T377 372T409 415T421 481Q421 520 409 546T378 589T336 613T291 620ZM266 302H226V0H95V530Q95 575 83 602T25 630H15V660H291Q315
660 344 658T403 649T461 630T512 597T547 547T561 476Q561 437 547 409T509 361T456 329T399 310L504 135Q523 103 540 83T574 50T603 33T628 25V0Q620 -4 600 -7T560 -10Q534 -10 510 -3T462 21T415 66T366 135L266 302Z" />
<glyph unicode="S" glyph-name="S" horiz-adv-x="561" d="M273 -17Q232 -17 192 -9T119 14T67 52T47 103V220H75Q91 116 139 72T272 28Q329 28 363 52T398 125Q398 168 371 196T295 254L172 328Q104 368 76 410T48 507Q48 586 108 632T272 678Q313 678 353 670T426
647T478 609T498 558V441H470Q453 545 406 589T283 633Q229 633 198 607T166 536Q166 515 173 499T194 468T227 441T270 414L393 341Q461 301 492 263T524 169Q524 83 459 33T273 -17Z" />
<glyph unicode="T" glyph-name="T" horiz-adv-x="575" d="M571 660V615H362V0H232V615H161Q108 615 77 589T46 495H16V580Q16 595 19 609T32 635T58 653T101 660H571Z" />
<glyph unicode="U" glyph-name="U" horiz-adv-x="694" d="M223 258Q224 154 263 95T382 35Q484 35 530 96T577 288V660H627V288Q627 217 613 162T568 69T486 10T362 -10Q92 -10 92 288V530Q92 575 80 602T22 630V660H132Q158 660 175 654T203 632T218 592T222
530L223 258Z" />
<glyph unicode="V" glyph-name="V" horiz-adv-x="635" d="M66 543Q42 599 20 621T-33 648V668Q-29 668 -14 669T9 670Q35 670 62 666T116 649T165 611T207 543L365 169L576 660H627L339 -10H299L66 543Z" />
<glyph unicode="W" glyph-name="W" horiz-adv-x="906" d="M666 179L837 660H885L648 -9H608L454 383L317 -9H277L61 543Q38 600 15 622T-38 648V668Q-34 668 -19 669T4 670Q30 670 58 667T112 650T161 612T202 543L337 198L427 454L392 543Q369 600 343 622T286
648V668Q290 668 304 669T325 670Q351 670 379 667T433 650T483 612T523 543L666 179Z" />
<glyph unicode="X" glyph-name="X" horiz-adv-x="647" d="M347 416L540 660H605L376 371L533 130Q545 111 561 92T595 58T631 32T667 20V0H557Q529 0 505 10T460 36T423 71T394 110L293 266L82 0H17L263 311L121 530Q109 549 93 568T59 602T23 628T-13 640V660H97Q125
660 149 650T194 624T231 589T260 550L347 416Z" />
<glyph unicode="Y" glyph-name="Y" horiz-adv-x="638" d="M377 345L571 660H636L409 291V0H279V264L102 530Q89 549 73 568T40 602T4 628T-31 640V660H78Q106 660 130 650T175 624T212 589T241 550L377 345Z" />
<glyph unicode="Z" glyph-name="Z" horiz-adv-x="599" d="M581 660L189 45H576V0H31V32L403 616H186Q133 616 102 589T71 495H41V580Q41 595 44 609T57 635T83 653T126 660H581Z" />
<glyph unicode="[" glyph-name="bracketleft" horiz-adv-x="331" d="M311 -200H66V680H311V635H186V-155H311V-200Z" />
<glyph unicode="\" glyph-name="backslash" horiz-adv-x="475" d="M342 0L21 660H133L454 0H342Z" />
<glyph unicode="]" glyph-name="bracketright" horiz-adv-x="331" d="M20 -155H145V635H20V680H265V-200H20V-155Z" />
<glyph unicode="^" glyph-name="asciicircum" horiz-adv-x="514" d="M279 680L494 330H396L257 557L118 330H20L235 680H279Z" />
<glyph unicode="_" glyph-name="underscore" horiz-adv-x="436" d="M428 -70H8V0H428V-70Z" />
<glyph unicode="`" glyph-name="grave" horiz-adv-x="227" d="M20 680H145L207 477H133L20 680Z" />
<glyph unicode="a" glyph-name="a" horiz-adv-x="496" d="M314 230H299Q227 230 196 204T164 125Q164 83 181 62T229 40Q252 40 267 50T294 72Q306 86 314 105V230ZM239 480Q337 480 390 428T444 270V0H359L324 45H319Q308 29 291 17Q277 6 254 -2T199 -10Q116
-10 73 27T29 125Q29 161 41 188T83 235T166 265T299 275H314Q314 365 289 400T219 435Q202 435 187 432T158 418T135 391T119 345H64Q64 371 67 398T89 445Q107 465 148 472T239 480Z" />
<glyph unicode="b" glyph-name="b" horiz-adv-x="547" d="M190 100Q199 81 212 67Q223 55 240 45T280 35Q306 35 324 50T353 92T370 155T375 235Q375 278 370 314T353 378T322 420T275 435Q256 435 241 430T214 420Q201 413 190 405V100ZM60 530Q60 575 48 602T-10
630H-20V660H100Q126 660 143 654T171 632T186 592T190 530V450Q202 458 218 465Q232 470 251 475T295 480Q349 480 389 461T457 409T497 331T510 235Q510 184 497 139T458 61T392 9T300 -10Q270 -10 248 -2T212 17Q195 29 185 45H180L145 0H60V530Z" />
<glyph unicode="c" glyph-name="c" horiz-adv-x="496" d="M291 435Q238 435 205 386T171 235Q171 35 296 35Q348 35 380 59T439 118L470 95Q459 78 444 60T405 26T351 0T276 -10Q216 -10 171 9T96 62T51 140T36 235Q36 285 51 329T96 407T171 460T276 480Q333
480 372 472T431 445Q450 426 453 394T456 305H426Q422 369 387 402T291 435Z" />
<glyph unicode="d" glyph-name="d" horiz-adv-x="547" d="M357 405Q346 413 333 420Q322 425 307 430T272 435Q244 435 225 420T194 378T177 315T172 235Q172 192 177 156T193 92T222 50T267 35Q290 35 306 45T334 67Q347 81 357 100V405ZM357 530Q357 575 345
602T287 630H277V660H397Q423 660 440 654T468 632T483 592T487 530V0H402L367 45H362Q351 29 334 17Q320 6 299 -2T247 -10Q194 -10 155 9T90 61T50 139T37 235Q37 286 50 331T90 409T157 461T252 480Q276 480 295 475T329 465Q345 458 357 450V530Z" />
<glyph unicode="e" glyph-name="e" horiz-adv-x="509" d="M282 35Q334 35 366 59T425 118L456 95Q445 78 430 60T392 26T339 0T267 -10Q214 -10 172 8T99 60T53 137T37 235Q37 295 54 341T100 417T170 464T257 480Q304 480 344 466T413 425T460 362T477 280Q477
269 477 258T475 237Q474 226 473 217H172Q172 118 202 77T282 35ZM342 262Q342 312 336 345T318 398T292 426T257 435Q240 435 225 427T198 398T179 345T172 262H342Z" />
<glyph unicode="f" glyph-name="f" horiz-adv-x="342" d="M267 670Q293 670 319 666T358 653Q383 638 397 610L357 575Q342 598 320 611T272 625Q238 625 220 598T202 497V470H332V425H202V0H72V425H12V470H72V497Q72 582 120 626T267 670Z" />
<glyph unicode="g" glyph-name="g" horiz-adv-x="523" d="M44 324Q44 367 60 397T106 445T175 472T259 480H469V453L379 441Q421 425 447 392T474 324Q474 281 459 252T415 204T348 178T259 170Q214 170 187 165T159 140Q159 123 186 119T259 113Q310 112 354
102T432 73T484 24T504 -45Q504 -89 486 -118T434 -166T356 -192T259 -200Q206 -200 162 -192T84 -166T33 -119T14 -45Q14 -18 26 3T57 41T101 68T149 85Q130 91 117 104T104 140Q104 174 144 190Q102 205 73 241T44 324ZM220 72Q187 58 168 31T149 -45Q149 -102
179 -128T259 -155Q309 -155 339 -129T369 -45Q369 0 341 29T267 67L220 72ZM339 324Q339 381 317 410T259 440Q224 440 202 413T179 324Q179 262 201 236T259 210Q294 210 316 236T339 324Z" />
<glyph unicode="h" glyph-name="h" horiz-adv-x="544" d="M60 530Q60 575 48 602T-10 630H-20V660H100Q126 660 143 654T171 632T186 592T190 530V442Q204 452 221 461Q235 468 255 474T300 480Q334 480 368 472T429 444T473 388T490 297V0H360V292Q360 331 353
357T333 399T304 423T270 430Q253 430 239 425T213 412Q201 404 190 395V0H60V530Z" />
<glyph unicode="i" glyph-name="i" horiz-adv-x="267" d="M199 580Q199 554 183 539T144 524Q106 524 88 547T69 600Q69 626 85 641T124 656Q162 656 180 633T199 580ZM79 340Q79 385 67 412T9 440H-1V470H119Q145 470 162 464T190 442T205 402T209 340V0H79V340Z" />
<glyph unicode="j" glyph-name="j" horiz-adv-x="267" d="M79 340Q79 385 67 412T9 440H-1V470H119Q145 470 162 464T190 442T205 402T209 340V25Q209 -37 198 -78T162 -144T95 -179T-9 -190V-165Q13 -161 30 -150T57 -117T73 -61T79 25V340ZM199 580Q199 554
183 539T144 524Q106 524 88 547T69 600Q69 626 85 641T124 656Q162 656 180 633T199 580Z" />
<glyph unicode="k" glyph-name="k" horiz-adv-x="505" d="M190 196V0H60V530Q60 575 48 602T-10 630H-20V660H100Q126 660 143 654T171 632T186 592T190 530V245L311 393Q326 411 340 425T371 450T408 465T455 470H475V444Q445 444 421 432T375 394L278 276L411
100Q437 65 460 47T504 24V0Q496 -4 475 -7T435 -10Q393 -10 356 7T286 70L190 196Z" />
<glyph unicode="l" glyph-name="l" horiz-adv-x="258" d="M64 530Q64 575 52 602T-6 630H-16V660H104Q130 660 147 654T175 632T190 592T194 530V0H64V530Z" />
<glyph unicode="m" glyph-name="m" horiz-adv-x="826" d="M189 432Q207 448 238 464T315 480Q343 480 366 474T406 458T435 440T453 423Q473 445 505 462T595 480Q678 480 724 437T770 296V0H640V297Q640 370 617 400T560 430Q532 430 510 419T474 392Q478 383
482 370Q485 359 487 341T490 296V0H360V297Q360 370 337 400T280 430Q257 430 235 417T203 390Q204 384 206 376Q208 369 209 359T210 337V0H80V340Q80 362 78 380T68 412T47 433T11 440H1V470H100Q130 470 152 462T185 432H189Z" />
<glyph unicode="n" glyph-name="n" horiz-adv-x="575" d="M295 430Q263 430 240 421T203 399Q204 393 206 385Q208 378 209 368T210 346V0H80V340Q80 362 78 380T68 412T47 433T11 440H1V470H100Q134 470 153 462T184 433Q193 441 205 449T235 464T276 475T330
480Q424 480 472 437T520 296V0H390V297Q390 370 363 400T295 430Z" />
<glyph unicode="o" glyph-name="o" horiz-adv-x="552" d="M381 235Q381 278 375 314T355 378T322 420T276 435Q250 435 230 420T197 378T178 315T171 235Q171 192 177 156T197 92T230 50T276 35Q302 35 322 50T355 92T374 155T381 235ZM36 235Q36 286 52 331T100
409T175 461T276 480Q332 480 376 461T452 409T499 331T516 235Q516 184 500 139T452 61T377 9T276 -10Q220 -10 176 9T100 61T53 139T36 235Z" />
<glyph unicode="p" glyph-name="p" horiz-adv-x="567" d="M320 480Q372 480 411 461T477 409T517 331T530 235Q530 184 517 139T477 61T410 9T315 -10Q290 -10 271 -6T238 5Q222 11 210 20V-190H80V340Q80 362 78 380T68 412T47 433T11 440H1V470H100Q134 470
153 461T184 428Q193 436 205 445T234 462T272 475T320 480ZM300 435Q262 435 239 421T203 394Q204 387 206 380Q208 373 209 365T210 346V65Q221 56 234 50Q245 44 260 40T295 35Q323 35 342 50T373 92T390 155T395 235Q395 278 390 314T374 378T344 420T300 435Z"
/>
<glyph unicode="q" glyph-name="q" horiz-adv-x="547" d="M357 370Q347 388 334 402Q323 414 307 424T267 435Q241 435 223 420T193 378T177 315T172 235Q172 192 177 156T194 92T225 50T272 35Q291 35 306 39T333 50Q346 56 357 65V370ZM487 -190H357V20Q345
11 329 5Q315 -1 296 -5T252 -10Q198 -10 158 9T90 61T50 139T37 235Q37 286 50 331T89 409T155 461T247 480Q277 480 298 472T334 452Q351 440 362 425H367L402 470H487V-190Z" />
<glyph unicode="r" glyph-name="r" horiz-adv-x="418" d="M310 480Q354 480 381 460Q390 454 396 446T406 431T413 420T415 415L364 376Q357 386 346 395Q337 403 325 409T295 415Q263 415 241 406T206 384Q207 377 208 369Q209 362 209 354T210 336V0H80V340Q80
362 78 380T68 412T47 433T11 440H1V470H100Q134 470 153 462T184 433Q202 449 233 464T310 480Z" />
<glyph unicode="s" glyph-name="s" horiz-adv-x="468" d="M209 35Q265 35 287 54T309 103Q309 132 283 149T219 184L167 206Q107 232 73 265T39 347Q39 380 53 404T92 446T153 471T229 480Q291 480 330 469T390 439Q408 422 411 390T414 320H379Q371 368 340 401T249
435Q204 435 184 416T164 367Q164 340 183 324T235 293L295 268Q364 239 399 208T434 123Q434 90 419 66T376 24T312 -1T229 -10Q167 -10 128 1T68 31Q50 48 47 80T44 150H79Q87 102 118 69T209 35Z" />
<glyph unicode="t" glyph-name="t" horiz-adv-x="354" d="M211 470H321V425H211V130Q211 74 224 55T263 35Q279 35 293 39T319 48Q331 54 342 62L356 34Q343 22 325 12Q309 4 285 -3T226 -10Q158 -10 120 27T81 136V425H21V470H81V560L131 620H211V470Z" />
<glyph unicode="u" glyph-name="u" horiz-adv-x="565" d="M70 340Q70 385 58 412T0 440H-10V470H110Q136 470 153 464T181 442T196 402T200 340V173Q200 96 222 66T285 35Q308 35 324 45T352 67Q365 81 375 100V470H505V0H420L385 45H380Q365 29 347 17Q331 6
308 -2T255 -10Q161 -10 116 33T70 174V340Z" />
<glyph unicode="v" glyph-name="v" horiz-adv-x="500" d="M77 355Q51 410 32 433T-12 458V478Q-8 478 5 479T25 480Q55 480 82 475T133 457T178 419T217 355L305 163L441 470H495L282 -10H246L77 355Z" />
<glyph unicode="w" glyph-name="w" horiz-adv-x="775" d="M588 154L710 470H763L579 -10H533L403 271L287 -10H242L79 355Q54 411 33 434T-14 459V478Q-12 478 -6 478T8 479T23 479T34 480Q66 480 92 474T140 454T180 416T216 355L301 164L368 324L354 355Q329
410 309 433T266 459V478Q270 478 283 479T304 480Q336 480 363 475T415 455T459 416T496 355L588 154Z" />
<glyph unicode="x" glyph-name="x" horiz-adv-x="496" d="M192 209L96 370Q75 406 51 426T3 450V470H98Q147 470 175 449T226 390L274 309L405 470H472L303 262L400 100Q421 64 445 44T493 20V0H398Q349 0 321 21T270 80L221 161L90 0H23L192 209Z" />
<glyph unicode="y" glyph-name="y" horiz-adv-x="509" d="M290 -65Q275 -106 258 -132T222 -173T181 -194T132 -200H92V-165Q118 -165 139 -161T179 -145T211 -116T236 -68L257 -14L77 380Q44 453 -16 460V480H72Q117 480 151 459T202 400L317 148L439 470H492L290 -65Z" />
<glyph unicode="z" glyph-name="z" horiz-adv-x="493" d="M480 470L196 45H459V0H39V31L302 425H184Q120 425 95 402T69 330H39V390Q39 405 42 419T55 445T81 463T124 470H480Z" />
<glyph unicode="{" glyph-name="braceleft" horiz-adv-x="312" d="M113 240Q176 223 204 190T233 100V-72Q233 -117 246 -143T293 -176V-211Q240 -207 204 -191T146 -151T113 -95T103 -30V110Q103 130 98 149T81 183T50 209T3 224V256Q31 260 50 270T81 296T98
331T103 370V510Q103 544 113 575T145 630T204 671T293 691V656Q259 650 246 624T233 552V380Q233 323 205 290T113 240Z" />
<glyph unicode="|" glyph-name="bar" horiz-adv-x="262" d="M196 680V-190H66V680H196Z" />
<glyph unicode="}" glyph-name="braceright" horiz-adv-x="312" d="M199 240Q136 257 108 290T79 380V552Q79 597 66 623T19 656V691Q71 687 107 671T166 631T199 575T209 510V370Q209 350 214 331T231 297T262 271T309 256V224Q281 220 262 210T231 184T214 149T209
110V-30Q209 -64 199 -95T167 -150T108 -191T19 -211V-176Q53 -170 66 -144T79 -72V100Q79 157 107 190T199 240Z" />
<glyph unicode="~" glyph-name="asciitilde" horiz-adv-x="611" d="M171 343Q216 343 254 330T327 300Q359 286 388 275T441 263Q483 263 502 278T521 323H561Q561 245 532 206T441 167Q396 167 358 180T285 210Q253 224 224 235T171 247Q129 247 110 232T91 187H51Q51
265 80 304T171 343Z" />
<glyph unicode="&#xa0;" glyph-name="uni00A0" horiz-adv-x="250" />
<glyph unicode="&#xa1;" glyph-name="exclamdown" horiz-adv-x="239" d="M186 -194H53L72 311H166L186 -194ZM180 419Q180 392 164 375T119 358Q90 358 74 375T58 419Q58 446 74 463T119 480Q148 480 164 463T180 419Z" />
<glyph unicode="&#xa2;" glyph-name="cent" horiz-adv-x="496" d="M241 -8Q188 -4 149 17T84 70T44 145T31 235Q31 282 44 324T83 398T149 452T241 478V520H301V479Q346 477 377 469T426 445Q445 426 448 394T451 305H421Q417 365 386 397T301 434V35Q325 36 344
43T378 61T407 86T434 118L465 95Q455 80 442 63T409 32T363 6T301 -8V-50H241V-8ZM166 235Q166 79 241 45V424Q206 407 186 360T166 235Z" />
<glyph unicode="&#xa3;" glyph-name="sterling" horiz-adv-x="535" d="M101 460Q101 524 120 564T170 628T236 661T306 670Q328 670 351 668T394 662T430 651T456 635Q475 616 478 589T481 535H426Q415 584 390 604T326 625Q307 625 290 618T260 591T239 541T231
460V365H361V320H231V220Q231 149 209 108T161 45H351Q411 45 438 75T466 165H496V80Q496 65 493 51T480 25T454 7T411 0H36V30Q55 36 67 48T87 82T98 137T101 220V320H41V365H101V460Z" />
<glyph unicode="&#xa4;" glyph-name="currency" horiz-adv-x="605" d="M306 330Q330 330 353 337T395 362T425 408T436 480Q436 517 424 544T394 587T354 612T311 620Q292 620 277 620T246 615V330H306ZM496 190H246V0H116V190H66V235H116V285H66V330H116V535Q116
556 114 573T104 603T82 623T46 630H36V660H311Q365 660 413 650T498 617T555 561T576 480Q576 429 555 393T498 332T412 297T306 285H246V235H496V190Z" />
<glyph unicode="&#xa5;" glyph-name="yen" horiz-adv-x="711" d="M429 345L623 660H688L461 291V265H547V220H461V180H547V135H461V0H331V135H247V180H331V220H247V265H330L154 530Q141 549 125 568T92 602T56 628T21 640V660H130Q158 660 182 650T227 624T264
589T293 550L429 345Z" />
<glyph unicode="&#xa6;" glyph-name="brokenbar" horiz-adv-x="268" d="M199 680V327H69V680H199ZM199 163V-190H69V163H199Z" />
<glyph unicode="&#xa7;" glyph-name="section" horiz-adv-x="450" d="M180 537Q180 512 188 494T209 460T241 433T279 408Q302 393 325 377T367 341T398 298T410 245Q410 194 379 157T296 100Q316 86 334 71T365 38T387 -1T395 -47Q395 -87 381 -116T342 -163T287
-191T220 -200Q174 -200 137 -190T79 -159Q57 -137 54 -112T50 -49H82Q90 -98 117 -126T190 -155Q228 -155 249 -135T271 -67Q271 -42 263 -24T241 10T209 37T171 63Q148 78 125 94T82 129T52 172T40 225Q40 272 72 310T152 370Q112 397 84 432T55 517Q55 557 69
586T108 633T163 661T230 670Q276 670 313 660T371 629Q393 607 396 582T400 519H368Q360 568 333 596T260 625Q222 625 201 605T180 537ZM301 215Q301 256 269 287T192 344Q171 336 160 315T149 255Q149 234 157 216T181 182T216 152T258 125Q279 133 290 154T301
215Z" />
<glyph unicode="&#xa8;" glyph-name="dieresis" horiz-adv-x="282" d="M112 746Q112 723 97 707T56 690Q30 690 15 706T0 746Q0 769 15 785T56 802Q82 802 97 786T112 746ZM282 746Q282 723 267 707T226 690Q200 690 185 706T170 746Q170 769 185 785T226 802Q252
802 267 786T282 746Z" />
<glyph unicode="&#xa9;" glyph-name="copyright" horiz-adv-x="806" d="M403 688Q483 688 551 661T668 587T745 474T773 330Q773 252 746 187T669 74T551 -1T403 -28Q323 -28 255 -1T138 73T61 186T33 330Q33 408 60 473T137 586T255 661T403 688ZM403 17Q469
17 524 40T619 104T681 203T703 330Q703 399 681 456T619 555T524 620T403 643Q337 643 282 620T187 556T125 457T103 330Q103 261 125 204T187 105T282 40T403 17ZM553 409Q541 473 511 503T423 533Q394 533 369 523T325 488T294 425T283 327Q283 291 291 257T316
195T359 151T423 134Q508 134 567 230L592 212Q560 152 514 127T403 102Q353 102 314 119T246 167T203 239T188 327Q188 377 205 420T251 496T319 546T403 565Q467 565 506 549T563 512Q579 493 581 466T584 409H553Z" />
<glyph unicode="&#xaa;" glyph-name="ordfeminine" horiz-adv-x="324" d="M196 522H180Q151 522 133 507T114 466Q114 440 125 431T150 421Q167 421 178 432T196 455V522ZM222 401L203 426H200Q191 416 175 406T131 396Q95 396 69 412T42 466Q42 504 76 525T180
547H196Q196 575 192 592T182 619T167 632T150 635Q122 635 109 621T90 583H61Q61 597 62 613T75 641Q85 652 108 656T160 660Q182 660 201 656T236 640T259 606T268 547V401H222Z" />
<glyph unicode="&#xab;" glyph-name="guillemotleft" horiz-adv-x="425" d="M308 370H372L310 225L372 80H308L206 225L308 370ZM253 30H189L31 225L189 420H253L156 226L253 30Z" />
<glyph unicode="&#xac;" glyph-name="logicalnot" horiz-adv-x="662" d="M513 220H58V290H603V115H513V220Z" />
<glyph unicode="&#xad;" glyph-name="uni00AD" horiz-adv-x="395" d="M58 312H337V217H58V312Z" />
<glyph unicode="&#xae;" glyph-name="registered" horiz-adv-x="806" d="M403 685Q483 685 551 659T668 585T745 473T773 330Q773 252 746 187T669 75T551 2T403 -25Q323 -25 255 1T138 75T61 187T33 330Q33 408 60 473T137 585T255 658T403 685ZM403 20Q469 20
524 42T619 106T681 204T703 330Q703 399 681 456T619 554T524 617T403 640Q337 640 282 618T187 554T125 456T103 330Q103 261 125 204T187 106T282 43T403 20ZM378 349Q415 349 439 369T463 438Q463 486 439 506T378 526Q370 526 365 526T354 525Q349 524 344
524V351Q350 350 355 350Q360 349 365 349T378 349ZM364 320H344V125H256V477Q256 505 251 522T226 539H208V555H381Q415 555 447 550T503 531T543 494T558 434Q558 408 549 390T525 359T492 338T455 326L523 216Q546 180 564 161T607 139V125Q607 124 594 121T555
118Q517 118 491 138T431 212L364 320Z" />
<glyph unicode="&#xaf;" glyph-name="overscore" horiz-adv-x="250" />
<glyph unicode="&#xb0;" glyph-name="degree" horiz-adv-x="416" d="M208 620Q170 620 144 593T118 520Q118 475 144 448T208 420Q246 420 272 447T298 520Q298 565 272 592T208 620ZM208 680Q249 680 281 668T334 634T367 583T378 520Q378 486 367 457T335 407T281
373T208 360Q167 360 135 372T82 406T49 457T38 520Q38 554 49 583T81 633T135 667T208 680Z" />
<glyph unicode="&#xb1;" glyph-name="plusminus" horiz-adv-x="582" d="M49 55V125H246V295H49V365H246V560H336V365H533V295H336V125H533V55H49Z" />
<glyph unicode="&#xb2;" glyph-name="twosuperior" horiz-adv-x="318" d="M191 404Q219 404 233 414T248 448H263V413Q263 399 256 388T224 377H53V400Q88 436 114 462T157 510T183 554T192 602Q192 637 180 649T147 662Q116 662 99 642T74 583H58Q58 600 59 621T69
653Q82 668 106 678T160 689Q178 689 196 685T230 672T254 645T264 602Q264 573 252 550T218 504T169 458T110 404H191Z" />
<glyph unicode="&#xb3;" glyph-name="threesuperior" horiz-adv-x="304" d="M116 547Q128 550 139 550T155 551Q174 551 194 546T230 530T256 503T266 462Q266 433 254 415T225 386T188 371T154 367Q112 367 87 381T43 418L57 430Q90 394 140 394Q160 394 177
409T194 462Q194 498 176 511T134 524Q123 524 114 523T91 518L75 546L193 653H115Q65 653 65 610H52V643Q52 657 59 668T91 680H244V662L116 547Z" />
<glyph unicode="&#xb4;" glyph-name="acute" horiz-adv-x="201" d="M75 700H20L62 840H181L75 700Z" />
<glyph unicode="&#xb5;" glyph-name="mu" horiz-adv-x="550" d="M273 -10Q243 -10 220 1T173 35V-190H63V470H193V235Q193 133 218 84T288 35Q322 35 342 54T373 100V470H503V0H418L383 45H378Q367 29 352 17Q338 6 319 -2T273 -10Z" />
<glyph unicode="&#xb6;" glyph-name="paragraph" horiz-adv-x="634" d="M256 270Q207 270 165 284T92 324T44 386T26 465Q26 508 43 544T92 605T165 645T256 660H596V615H541V-190H421V615H376V-190H256V270Z" />
<glyph unicode="&#xb7;" glyph-name="middot" horiz-adv-x="226" d="M174 331Q174 304 158 287T113 270Q84 270 68 287T52 331Q52 358 68 375T113 392Q142 392 158 375T174 331Z" />
<glyph unicode="&#xb8;" glyph-name="cedilla" horiz-adv-x="200" d="M45 0H110V-50Q152 -50 176 -71T200 -128Q200 -163 176 -184T110 -206H40V-160H90Q109 -160 119 -151T130 -128Q130 -114 120 -105T90 -95H45V0Z" />
<glyph unicode="&#xb9;" glyph-name="onesuperior" horiz-adv-x="214" d="M152 377H80V614L46 594L30 616L98 680H152V377Z" />
<glyph unicode="&#xba;" glyph-name="ordmasculine" horiz-adv-x="337" d="M168 664Q157 664 147 658T130 637T119 595T115 528Q115 488 119 462T130 421T147 399T168 392Q180 392 190 398T207 420T218 462T222 528Q222 568 218 594T207 636T190 658T168 664ZM168
689Q202 689 226 676T265 641T287 590T294 528Q294 496 287 467T265 415T226 380T168 367Q135 367 111 380T72 415T50 466T43 528Q43 561 50 590T72 641T111 676T168 689Z" />
<glyph unicode="&#xbb;" glyph-name="guillemotright" horiz-adv-x="425" d="M219 225L117 80H53L115 225L53 370H117L219 225ZM269 226L172 420H236L394 225L236 30H172L269 226Z" />
<glyph unicode="&#xbc;" glyph-name="onequarter" horiz-adv-x="617" d="M26 0L481 660H576L121 0H26ZM539 100H573V73H539V0H467V73H322V97L472 304H539V100ZM467 100V246L361 100H467ZM185 377H113V614L79 594L63 616L131 680H185V377Z" />
<glyph unicode="&#xbd;" glyph-name="onehalf" horiz-adv-x="632" d="M26 0L481 660H576L121 0H26ZM185 377H113V614L79 594L63 616L131 680H185V377ZM510 27Q538 27 552 37T567 71H582V36Q582 22 575 11T543 0H372V23Q407 59 433 85T476 133T502 177T511 225Q511
260 499 272T466 285Q435 285 418 265T393 206H377Q377 223 378 244T388 276Q401 291 425 301T479 312Q497 312 515 308T549 295T573 268T583 225Q583 196 571 173T537 127T488 81T429 27H510Z" />
<glyph unicode="&#xbe;" glyph-name="threequarters" horiz-adv-x="626" d="M45 0L500 660H595L140 0H45ZM548 100H582V73H548V0H476V73H331V97L481 304H548V100ZM476 100V246L370 100H476ZM110 547Q122 550 133 550T149 551Q168 551 188 546T224 530T250 503T260
462Q260 433 248 415T219 386T182 371T148 367Q106 367 81 381T37 418L51 430Q84 394 134 394Q154 394 171 409T188 462Q188 498 170 511T128 524Q117 524 108 523T85 518L69 546L187 653H109Q59 653 59 610H46V643Q46 657 53 668T85 680H238V662L110 547Z" />
<glyph unicode="&#xbf;" glyph-name="questiondown" horiz-adv-x="492" d="M270 -167Q299 -167 325 -157T372 -124T410 -66T436 21H466Q466 -23 463 -64T440 -131Q426 -147 405 -161T357 -187T301 -205T240 -212Q194 -212 155 -199T88 -162T43 -101T26 -19Q26
23 40 54T75 109T121 155T168 200T206 249T225 312H293Q291 275 281 247T257 194T227 147T198 101T175 47T166 -19Q166 -61 174 -89T195 -135T228 -160T270 -167ZM198 421Q198 448 214 465T259 482Q288 482 304 465T320 421Q320 394 304 377T259 360Q230 360 214
377T198 421Z" />
<glyph unicode="&#xc0;" glyph-name="Agrave" horiz-adv-x="647" d="M572 126Q590 82 616 56T676 26V1Q668 -1 654 -2T628 -4Q604 -4 577 0T523 18T473 57T431 126L408 182H142L60 0H8L303 660H348L572 126ZM163 227H389L279 488L163 227ZM189 841H308L350 701H295L189
841Z" />
<glyph unicode="&#xc1;" glyph-name="Aacute" horiz-adv-x="647" d="M572 126Q590 82 616 56T676 26V1Q668 -1 654 -2T628 -4Q604 -4 577 0T523 18T473 57T431 126L408 182H142L60 0H8L303 660H348L572 126ZM163 227H389L279 488L163 227ZM356 700H301L343 840H462L356
700Z" />
<glyph unicode="&#xc2;" glyph-name="Acircumflex" horiz-adv-x="647" d="M572 126Q590 82 616 56T676 26V1Q668 -1 654 -2T628 -4Q604 -4 577 0T523 18T473 57T431 126L408 182H142L60 0H8L303 660H348L572 126ZM163 227H389L279 488L163 227ZM323 765L238 685H178L258
810H388L468 685H408L323 765Z" />
<glyph unicode="&#xc3;" glyph-name="Atilde" horiz-adv-x="647" d="M572 126Q590 82 616 56T676 26V1Q668 -1 654 -2T628 -4Q604 -4 577 0T523 18T473 57T431 126L408 182H142L60 0H8L303 660H348L572 126ZM163 227H389L279 488L163 227ZM210 700Q210 760 229
780T278 800Q295 800 307 794T330 780T350 766T370 760Q387 760 396 772T405 800H445Q445 740 427 720T378 700Q361 700 349 706T326 719T305 733T285 740Q268 740 259 728T250 700H210Z" />
<glyph unicode="&#xc4;" glyph-name="Adieresis" horiz-adv-x="647" d="M572 126Q590 82 616 56T676 26V1Q668 -1 654 -2T628 -4Q604 -4 577 0T523 18T473 57T431 126L408 182H142L60 0H8L303 660H348L572 126ZM163 227H389L279 488L163 227ZM295 746Q295 723
280 707T239 690Q213 690 198 706T183 746Q183 769 198 785T239 802Q265 802 280 786T295 746ZM465 746Q465 723 450 707T409 690Q383 690 368 706T353 746Q353 769 368 785T409 802Q435 802 450 786T465 746Z" />
<glyph unicode="&#xc5;" glyph-name="Aring" horiz-adv-x="647" d="M420 705Q420 672 402 650T365 619L572 126Q590 82 616 56T676 26V1Q668 -1 654 -2T628 -4Q604 -4 577 0T523 18T473 57T431 126L408 182H142L60 0H8L284 619Q266 628 248 650T230 705Q230 747
256 773T325 800Q367 800 393 774T420 705ZM163 227H389L279 488L163 227ZM348 660Q370 675 370 705Q370 728 357 741T325 755Q306 755 293 742T280 705Q280 675 303 660H348Z" />
<glyph unicode="&#xc6;" glyph-name="AE" horiz-adv-x="868" d="M724 660Q750 660 766 653T792 635T805 610T809 580V495H779Q779 559 747 587T654 615H493V365H753V320H493V45H664Q719 45 757 69T822 159L849 149L820 70Q809 38 792 19T733 0H363V190H145L38
0H-22L348 660H724ZM363 235V579L170 235H363Z" />
<glyph unicode="&#xc7;" glyph-name="Ccedilla" horiz-adv-x="679" d="M600 447Q581 538 531 586T397 635Q351 635 311 620T241 569T194 472T177 320Q177 263 189 210T227 115T295 50T397 25Q466 25 525 61T620 168L655 141Q610 61 547 23T387 -19V-50Q429 -50
453 -71T477 -128Q477 -163 453 -184T387 -206H317V-160H367Q386 -160 396 -151T407 -128Q407 -114 397 -105T367 -95H322V-17Q254 -10 201 18T112 92T56 195T37 320Q37 396 62 461T131 575T235 652T367 680Q461 680 518 656T604 599Q624 573 627 532T630 447H600Z"
/>
<glyph unicode="&#xc8;" glyph-name="Egrave" horiz-adv-x="600" d="M456 660Q482 660 498 653T524 635T537 610T541 580V495H511Q511 559 479 587T386 615H225V365H485V320H225V45H396Q451 45 489 69T554 159L581 149L552 70Q541 38 524 19T465 0H95V530Q95 575
83 602T25 630H15V660H456ZM192 841H311L353 701H298L192 841Z" />
<glyph unicode="&#xc9;" glyph-name="Eacute" horiz-adv-x="600" d="M456 660Q482 660 498 653T524 635T537 610T541 580V495H511Q511 559 479 587T386 615H225V365H485V320H225V45H396Q451 45 489 69T554 159L581 149L552 70Q541 38 524 19T465 0H95V530Q95 575
83 602T25 630H15V660H456ZM335 700H280L322 840H441L335 700Z" />
<glyph unicode="&#xca;" glyph-name="Ecircumflex" horiz-adv-x="600" d="M456 660Q482 660 498 653T524 635T537 610T541 580V495H511Q511 559 479 587T386 615H225V365H485V320H225V45H396Q451 45 489 69T554 159L581 149L552 70Q541 38 524 19T465 0H95V530Q95
575 83 602T25 630H15V660H456ZM305 802L220 722H160L240 847H370L450 722H390L305 802Z" />
<glyph unicode="&#xcb;" glyph-name="Edieresis" horiz-adv-x="600" d="M456 660Q482 660 498 653T524 635T537 610T541 580V495H511Q511 559 479 587T386 615H225V365H485V320H225V45H396Q451 45 489 69T554 159L581 149L552 70Q541 38 524 19T465 0H95V530Q95
575 83 602T25 630H15V660H456ZM268 786Q268 763 253 747T212 730Q186 730 171 746T156 786Q156 809 171 825T212 842Q238 842 253 826T268 786ZM448 786Q448 763 433 747T392 730Q366 730 351 746T336 786Q336 809 351 825T392 842Q418 842 433 826T448 786Z"
/>
<glyph unicode="&#xcc;" glyph-name="Igrave" horiz-adv-x="304" d="M79 660H209V130Q209 85 221 58T279 30H289V0H169Q143 0 126 6T98 27T83 67T79 130V660ZM21 841H140L182 701H127L21 841Z" />
<glyph unicode="&#xcd;" glyph-name="Iacute" horiz-adv-x="304" d="M79 660H209V130Q209 85 221 58T279 30H289V0H169Q143 0 126 6T98 27T83 67T79 130V660ZM166 700H111L153 840H272L166 700Z" />
<glyph unicode="&#xce;" glyph-name="Icircumflex" horiz-adv-x="304" d="M79 660H209V130Q209 85 221 58T279 30H289V0H169Q143 0 126 6T98 27T83 67T79 130V660ZM401 775L316 695H256L336 820H466L546 695H486L401 775Z" />
<glyph unicode="&#xcf;" glyph-name="Idieresis" horiz-adv-x="304" d="M79 660H209V130Q209 85 221 58T279 30H289V0H169Q143 0 126 6T98 27T83 67T79 130V660ZM117 771Q117 748 102 732T61 715Q35 715 20 731T5 771Q5 794 20 810T61 827Q87 827 102 811T117
771ZM283 771Q283 748 268 732T227 715Q201 715 186 731T171 771Q171 794 186 810T227 827Q253 827 268 811T283 771Z" />
<glyph unicode="&#xd0;" glyph-name="Eth" horiz-adv-x="736" d="M287 660Q390 660 467 638T596 573T674 471T700 334Q700 260 675 199T601 93T480 25T313 0H95V305H25V355H95V530Q95 575 83 602T25 630H15V660H287ZM300 620Q285 620 272 619T247 616Q235 614
225 613V355H300V305H225V47Q235 45 247 43Q268 40 300 40H310Q362 40 406 60T482 117T532 209T550 330Q550 396 533 449T483 541T407 599T308 620H300Z" />
<glyph unicode="&#xd1;" glyph-name="Ntilde" horiz-adv-x="692" d="M568 200V660H618V-3H572L148 495V0H98V540Q98 559 94 575T80 604T52 623T8 630H3V660H73Q130 660 165 645T224 600L568 200ZM235 694Q235 754 254 774T303 794Q320 794 332 788T355 774T375
760T395 754Q412 754 421 766T430 794H470Q470 734 452 714T403 694Q386 694 374 700T351 713T330 727T310 734Q293 734 284 722T275 694H235Z" />
<glyph unicode="&#xd2;" glyph-name="Ograve" horiz-adv-x="733" d="M558 330Q558 476 508 555T367 635Q276 635 227 556T177 330Q177 184 226 105T367 25Q458 25 508 104T558 330ZM37 330Q37 404 60 468T127 579T231 653T367 680Q442 680 502 653T606 579T672
468T696 330Q696 256 673 192T606 81T503 7T367 -20Q292 -20 232 7T128 81T61 192T37 330ZM238 863H357L399 723H344L238 863Z" />
<glyph unicode="&#xd3;" glyph-name="Oacute" horiz-adv-x="733" d="M558 330Q558 476 508 555T367 635Q276 635 227 556T177 330Q177 184 226 105T367 25Q458 25 508 104T558 330ZM37 330Q37 404 60 468T127 579T231 653T367 680Q442 680 502 653T606 579T672
468T696 330Q696 256 673 192T606 81T503 7T367 -20Q292 -20 232 7T128 81T61 192T37 330ZM393 724H338L380 864H499L393 724Z" />
<glyph unicode="&#xd4;" glyph-name="Ocircumflex" horiz-adv-x="733" d="M558 330Q558 476 508 555T367 635Q276 635 227 556T177 330Q177 184 226 105T367 25Q458 25 508 104T558 330ZM37 330Q37 404 60 468T127 579T231 653T367 680Q442 680 502 653T606 579T672
468T696 330Q696 256 673 192T606 81T503 7T367 -20Q292 -20 232 7T128 81T61 192T37 330ZM363 811L278 731H218L298 856H428L508 731H448L363 811Z" />
<glyph unicode="&#xd5;" glyph-name="Otilde" horiz-adv-x="733" d="M558 330Q558 476 508 555T367 635Q276 635 227 556T177 330Q177 184 226 105T367 25Q458 25 508 104T558 330ZM37 330Q37 404 60 468T127 579T231 653T367 680Q442 680 502 653T606 579T672
468T696 330Q696 256 673 192T606 81T503 7T367 -20Q292 -20 232 7T128 81T61 192T37 330ZM249 738Q249 798 268 818T317 838Q334 838 346 832T369 818T389 804T409 798Q426 798 435 810T444 838H484Q484 778 466 758T417 738Q400 738 388 744T365 757T344 771T324
778Q307 778 298 766T289 738H249Z" />
<glyph unicode="&#xd6;" glyph-name="Odieresis" horiz-adv-x="733" d="M558 330Q558 476 508 555T367 635Q276 635 227 556T177 330Q177 184 226 105T367 25Q458 25 508 104T558 330ZM37 330Q37 404 60 468T127 579T231 653T367 680Q442 680 502 653T606 579T672
468T696 330Q696 256 673 192T606 81T503 7T367 -20Q292 -20 232 7T128 81T61 192T37 330ZM333 791Q333 768 318 752T277 735Q251 735 236 751T221 791Q221 814 236 830T277 847Q303 847 318 831T333 791ZM513 791Q513 768 498 752T457 735Q431 735 416 751T401
791Q401 814 416 830T457 847Q483 847 498 831T513 791Z" />
<glyph unicode="&#xd7;" glyph-name="multiply" horiz-adv-x="489" d="M245 271L105 132L42 195L181 334L43 472L107 536L245 398L384 537L448 474L308 334L446 196L382 133L245 271Z" />
<glyph unicode="&#xd8;" glyph-name="Oslash" horiz-adv-x="733" d="M107 -20L152 56Q97 104 67 174T37 330Q37 404 60 468T127 579T231 653T367 680Q445 680 510 649L528 680H620L576 607Q633 559 664 488T696 330Q696 256 673 192T606 81T503 7T367 -20Q325
-20 288 -12T219 13L199 -20H107ZM558 330Q558 389 550 436T525 522L253 70Q298 25 367 25Q458 25 508 104T558 330ZM177 330Q177 220 206 145L476 593Q429 635 367 635Q276 635 227 556T177 330Z" />
<glyph unicode="&#xd9;" glyph-name="Ugrave" horiz-adv-x="695" d="M223 258Q224 154 263 95T382 35Q484 35 530 96T577 288V660H627V288Q627 217 613 162T568 69T486 10T362 -10Q92 -10 92 288V530Q92 575 80 602T22 630V660H132Q158 660 175 654T203 632T218
592T222 530L223 258ZM263 820H382L424 680H369L263 820Z" />
<glyph unicode="&#xda;" glyph-name="Uacute" horiz-adv-x="695" d="M223 258Q224 154 263 95T382 35Q484 35 530 96T577 288V660H627V288Q627 217 613 162T568 69T486 10T362 -10Q92 -10 92 288V530Q92 575 80 602T22 630V660H132Q158 660 175 654T203 632T218
592T222 530L223 258ZM392 681H337L379 821H498L392 681Z" />
<glyph unicode="&#xdb;" glyph-name="Ucircumflex" horiz-adv-x="695" d="M223 258Q224 154 263 95T382 35Q484 35 530 96T577 288V660H627V288Q627 217 613 162T568 69T486 10T362 -10Q92 -10 92 288V530Q92 575 80 602T22 630V660H132Q158 660 175 654T203 632T218
592T222 530L223 258ZM388 761L303 681H243L323 806H453L533 681H473L388 761Z" />
<glyph unicode="&#xdc;" glyph-name="Udieresis" horiz-adv-x="695" d="M223 258Q224 154 263 95T382 35Q484 35 530 96T577 288V660H627V288Q627 217 613 162T568 69T486 10T362 -10Q92 -10 92 288V530Q92 575 80 602T22 630V660H132Q158 660 175 654T203 632T218
592T222 530L223 258ZM349 737Q349 714 334 698T293 681Q267 681 252 697T237 737Q237 760 252 776T293 793Q319 793 334 777T349 737ZM529 737Q529 714 514 698T473 681Q447 681 432 697T417 737Q417 760 432 776T473 793Q499 793 514 777T529 737Z" />
<glyph unicode="&#xdd;" glyph-name="Yacute" horiz-adv-x="638" d="M377 345L571 660H636L409 291V0H279V264L102 530Q89 549 73 568T40 602T4 628T-31 640V660H78Q106 660 130 650T175 624T212 589T241 550L377 345ZM373 670H318L360 810H479L373 670Z" />
<glyph unicode="&#xde;" glyph-name="Thorn" horiz-adv-x="555" d="M227 550Q537 542 537 315Q537 86 227 80V-30H97V560Q97 605 85 632T27 660H17V690H137Q163 690 180 684T208 662T223 622T227 560V550ZM397 315Q397 397 356 448T227 504V125Q315 131 356 182T397 315Z" />
<glyph unicode="&#xdf;" glyph-name="germandbls" horiz-adv-x="573" d="M340 550Q340 588 320 606T270 625Q236 625 213 598T190 500V0H60V500Q60 552 76 585T120 637T188 663T275 670Q373 670 419 643T465 570Q465 529 446 503T403 455T360 415T340 370Q340
343 356 323T396 287T447 255T499 221T539 178T555 120Q555 86 540 62T500 21T444 -2T380 -10Q342 -10 308 0T255 30Q236 49 233 75T230 120H260Q262 105 269 90T289 63T319 43T360 35Q394 35 412 54T430 100Q430 127 416 147T380 183T333 215T286 249T250 292T235
350Q235 391 251 415T287 457T323 496T340 550Z" />
<glyph unicode="&#xe0;" glyph-name="agrave" horiz-adv-x="496" d="M314 230H299Q227 230 196 204T164 125Q164 83 181 62T229 40Q252 40 267 50T294 72Q306 86 314 105V230ZM239 480Q337 480 390 428T444 270V0H359L324 45H319Q308 29 291 17Q277 6 254 -2T199
-10Q116 -10 73 27T29 125Q29 161 41 188T83 235T166 265T299 275H314Q314 365 289 400T219 435Q202 435 187 432T158 418T135 391T119 345H64Q64 371 67 398T89 445Q107 465 148 472T239 480ZM115 665H234L276 525H221L115 665Z" />
<glyph unicode="&#xe1;" glyph-name="aacute" horiz-adv-x="496" d="M314 230H299Q227 230 196 204T164 125Q164 83 181 62T229 40Q252 40 267 50T294 72Q306 86 314 105V230ZM239 480Q337 480 390 428T444 270V0H359L324 45H319Q308 29 291 17Q277 6 254 -2T199
-10Q116 -10 73 27T29 125Q29 161 41 188T83 235T166 265T299 275H314Q314 365 289 400T219 435Q202 435 187 432T158 418T135 391T119 345H64Q64 371 67 398T89 445Q107 465 148 472T239 480ZM256 526H201L243 666H362L256 526Z" />
<glyph unicode="&#xe2;" glyph-name="acircumflex" horiz-adv-x="496" d="M314 230H299Q227 230 196 204T164 125Q164 83 181 62T229 40Q252 40 267 50T294 72Q306 86 314 105V230ZM239 480Q337 480 390 428T444 270V0H359L324 45H319Q308 29 291 17Q277 6 254
-2T199 -10Q116 -10 73 27T29 125Q29 161 41 188T83 235T166 265T299 275H314Q314 365 289 400T219 435Q202 435 187 432T158 418T135 391T119 345H64Q64 371 67 398T89 445Q107 465 148 472T239 480ZM250 611L165 531H105L185 656H315L395 531H335L250 611Z" />
<glyph unicode="&#xe3;" glyph-name="atilde" horiz-adv-x="496" d="M314 230H299Q227 230 196 204T164 125Q164 83 181 62T229 40Q252 40 267 50T294 72Q306 86 314 105V230ZM239 480Q337 480 390 428T444 270V0H359L324 45H319Q308 29 291 17Q277 6 254 -2T199
-10Q116 -10 73 27T29 125Q29 161 41 188T83 235T166 265T299 275H314Q314 365 289 400T219 435Q202 435 187 432T158 418T135 391T119 345H64Q64 371 67 398T89 445Q107 465 148 472T239 480ZM128 536Q128 596 147 616T196 636Q213 636 225 630T248 616T268 602T288
596Q305 596 314 608T323 636H363Q363 576 345 556T296 536Q279 536 267 542T244 555T223 569T203 576Q186 576 177 564T168 536H128Z" />
<glyph unicode="&#xe4;" glyph-name="adieresis" horiz-adv-x="496" d="M314 230H299Q227 230 196 204T164 125Q164 83 181 62T229 40Q252 40 267 50T294 72Q306 86 314 105V230ZM239 480Q337 480 390 428T444 270V0H359L324 45H319Q308 29 291 17Q277 6 254 -2T199
-10Q116 -10 73 27T29 125Q29 161 41 188T83 235T166 265T299 275H314Q314 365 289 400T219 435Q202 435 187 432T158 418T135 391T119 345H64Q64 371 67 398T89 445Q107 465 148 472T239 480ZM215 591Q215 568 200 552T159 535Q133 535 118 551T103 591Q103 614
118 630T159 647Q185 647 200 631T215 591ZM395 591Q395 568 380 552T339 535Q313 535 298 551T283 591Q283 614 298 630T339 647Q365 647 380 631T395 591Z" />
<glyph unicode="&#xe5;" glyph-name="aring" horiz-adv-x="496" d="M314 230H299Q227 230 196 204T164 125Q164 83 181 62T229 40Q252 40 267 50T294 72Q306 86 314 105V230ZM239 480Q337 480 390 428T444 270V0H359L324 45H319Q308 29 291 17Q277 6 254 -2T199
-10Q116 -10 73 27T29 125Q29 161 41 188T83 235T166 265T299 275H314Q314 365 289 400T219 435Q202 435 187 432T158 418T135 391T119 345H64Q64 371 67 398T89 445Q107 465 148 472T239 480ZM148 615Q148 657 174 683T243 710Q285 710 311 684T338 615Q338 573
312 547T243 520Q201 520 175 546T148 615ZM288 615Q288 638 275 651T243 665Q224 665 211 652T198 615Q198 592 211 579T243 565Q262 565 275 578T288 615Z" />
<glyph unicode="&#xe6;" glyph-name="ae" horiz-adv-x="795" d="M568 35Q620 35 652 59T711 118L742 95Q731 78 716 60T678 26T625 0T553 -10Q443 -10 383 80Q374 63 359 47T322 18T272 -2T208 -10Q118 -10 73 27T28 120Q28 152 40 178T84 223T169 252T303 262H318Q318
353 293 394T218 435Q201 435 186 432T157 418T134 391T118 345H63Q63 371 66 398T88 445Q97 455 112 461T145 472T182 478T218 480Q282 480 326 456T393 389Q422 435 463 457T553 480Q596 480 634 466T701 425T746 362T763 280Q763 269 763 258T761 237Q760 226
759 217H458V207Q459 114 489 75T568 35ZM628 262Q628 354 604 394T543 435Q509 435 484 395T458 262H628ZM318 217H303Q260 217 233 211T190 191T169 160T163 120Q163 86 180 63T228 40Q252 40 269 50T297 72Q309 86 318 105V217Z" />
<glyph unicode="&#xe7;" glyph-name="ccedilla" horiz-adv-x="498" d="M292 435Q239 435 206 386T172 235Q172 35 297 35Q349 35 381 59T440 118L471 95Q460 79 446 62T412 29T363 4T296 -9V-32Q334 -32 358 -53T382 -110Q382 -145 358 -166T296 -188H236V-142H276Q295
-142 305 -133T316 -110Q316 -96 306 -87T276 -77H237V-7Q187 -1 150 20T87 74T50 147T37 235Q37 285 52 329T97 407T172 460T277 480Q334 480 373 472T432 445Q451 426 454 394T457 305H427Q423 369 388 402T292 435Z" />
<glyph unicode="&#xe8;" glyph-name="egrave" horiz-adv-x="509" d="M282 35Q334 35 366 59T425 118L456 95Q445 78 430 60T392 26T339 0T267 -10Q214 -10 172 8T99 60T53 137T37 235Q37 295 54 341T100 417T170 464T257 480Q304 480 344 466T413 425T460 362T477
280Q477 269 477 258T475 237Q474 226 473 217H172Q172 118 202 77T282 35ZM342 262Q342 312 336 345T318 398T292 426T257 435Q240 435 225 427T198 398T179 345T172 262H342ZM129 665H248L290 525H235L129 665Z" />
<glyph unicode="&#xe9;" glyph-name="eacute" horiz-adv-x="509" d="M282 35Q334 35 366 59T425 118L456 95Q445 78 430 60T392 26T339 0T267 -10Q214 -10 172 8T99 60T53 137T37 235Q37 295 54 341T100 417T170 464T257 480Q304 480 344 466T413 425T460 362T477
280Q477 269 477 258T475 237Q474 226 473 217H172Q172 118 202 77T282 35ZM342 262Q342 312 336 345T318 398T292 426T257 435Q240 435 225 427T198 398T179 345T172 262H342ZM274 525H219L261 665H380L274 525Z" />
<glyph unicode="&#xea;" glyph-name="ecircumflex" horiz-adv-x="509" d="M282 35Q334 35 366 59T425 118L456 95Q445 78 430 60T392 26T339 0T267 -10Q214 -10 172 8T99 60T53 137T37 235Q37 295 54 341T100 417T170 464T257 480Q304 480 344 466T413 425T460
362T477 280Q477 269 477 258T475 237Q474 226 473 217H172Q172 118 202 77T282 35ZM342 262Q342 312 336 345T318 398T292 426T257 435Q240 435 225 427T198 398T179 345T172 262H342ZM252 606L167 526H107L187 651H317L397 526H337L252 606Z" />
<glyph unicode="&#xeb;" glyph-name="edieresis" horiz-adv-x="509" d="M282 35Q334 35 366 59T425 118L456 95Q445 78 430 60T392 26T339 0T267 -10Q214 -10 172 8T99 60T53 137T37 235Q37 295 54 341T100 417T170 464T257 480Q304 480 344 466T413 425T460 362T477
280Q477 269 477 258T475 237Q474 226 473 217H172Q172 118 202 77T282 35ZM342 262Q342 312 336 345T318 398T292 426T257 435Q240 435 225 427T198 398T179 345T172 262H342ZM218 591Q218 568 203 552T162 535Q136 535 121 551T106 591Q106 614 121 630T162 647Q188
647 203 631T218 591ZM398 591Q398 568 383 552T342 535Q316 535 301 551T286 591Q286 614 301 630T342 647Q368 647 383 631T398 591Z" />
<glyph unicode="&#xec;" glyph-name="igrave" horiz-adv-x="267" d="M79 340Q79 385 67 412T9 440H-1V470H119Q145 470 162 464T190 442T205 402T209 340V0H79V340ZM267 665H386L428 525H373L267 665Z" />
<glyph unicode="&#xed;" glyph-name="iacute" horiz-adv-x="267" d="M79 340Q79 385 67 412T9 440H-1V470H119Q145 470 162 464T190 442T205 402T209 340V0H79V340ZM150 525H95L137 665H256L150 525Z" />
<glyph unicode="&#xee;" glyph-name="icircumflex" horiz-adv-x="267" d="M79 340Q79 385 67 412T9 440H-1V470H119Q145 470 162 464T190 442T205 402T209 340V0H79V340ZM135 612L50 532H-10L70 657H200L280 532H220L135 612Z" />
<glyph unicode="&#xef;" glyph-name="idieresis" horiz-adv-x="267" d="M109 590Q109 564 93 549T54 534Q16 534 -2 557T-21 610Q-21 636 -5 651T34 666Q72 666 90 643T109 590ZM79 340Q79 385 67 412T9 440H-1V470H119Q145 470 162 464T190 442T205 402T209 340V0H79V340ZM294
590Q294 564 278 549T239 534Q201 534 183 557T164 610Q164 636 180 651T219 666Q257 666 275 643T294 590Z" />
<glyph unicode="&#xf0;" glyph-name="eth" horiz-adv-x="557" d="M406 400Q395 451 380 488T340 555L293 508L253 548L300 595Q279 615 252 620T196 625Q185 625 175 624T158 620Q149 618 143 616L129 648Q147 659 172 664T216 670Q259 670 289 661T344 634L387
680L427 642L385 600Q441 550 478 466T516 270Q516 206 501 155T456 67T381 10T276 -10Q216 -10 171 9T96 62T51 139T36 235Q36 286 51 330T95 408T167 460T266 480Q315 480 351 459T406 400ZM381 235Q381 271 375 306T357 370T324 417T276 435Q248 435 228 417T196
371T177 307T171 235Q171 184 179 147T202 85T236 48T276 35Q297 35 316 47T349 84T372 146T381 235Z" />
<glyph unicode="&#xf1;" glyph-name="ntilde" horiz-adv-x="575" d="M295 430Q263 430 240 421T203 399Q204 393 206 385Q208 378 209 368T210 346V0H80V340Q80 362 78 380T68 412T47 433T11 440H1V470H100Q134 470 153 462T184 433Q193 441 205 449T235 464T276
475T330 480Q424 480 472 437T520 296V0H390V297Q390 370 363 400T295 430ZM177 545Q177 605 196 625T245 645Q262 645 274 639T297 625T317 611T337 605Q354 605 363 617T372 645H412Q412 585 394 565T345 545Q328 545 316 551T293 564T272 578T252 585Q235 585
226 573T217 545H177Z" />
<glyph unicode="&#xf2;" glyph-name="ograve" horiz-adv-x="552" d="M381 235Q381 278 375 314T355 378T322 420T276 435Q250 435 230 420T197 378T178 315T171 235Q171 192 177 156T197 92T230 50T276 35Q302 35 322 50T355 92T374 155T381 235ZM36 235Q36 286
52 331T100 409T175 461T276 480Q332 480 376 461T452 409T499 331T516 235Q516 184 500 139T452 61T377 9T276 -10Q220 -10 176 9T100 61T53 139T36 235ZM153 665H272L314 525H259L153 665Z" />
<glyph unicode="&#xf3;" glyph-name="oacute" horiz-adv-x="552" d="M381 235Q381 278 375 314T355 378T322 420T276 435Q250 435 230 420T197 378T178 315T171 235Q171 192 177 156T197 92T230 50T276 35Q302 35 322 50T355 92T374 155T381 235ZM36 235Q36 286
52 331T100 409T175 461T276 480Q332 480 376 461T452 409T499 331T516 235Q516 184 500 139T452 61T377 9T276 -10Q220 -10 176 9T100 61T53 139T36 235ZM288 525H233L275 665H394L288 525Z" />
<glyph unicode="&#xf4;" glyph-name="ocircumflex" horiz-adv-x="552" d="M381 235Q381 278 375 314T355 378T322 420T276 435Q250 435 230 420T197 378T178 315T171 235Q171 192 177 156T197 92T230 50T276 35Q302 35 322 50T355 92T374 155T381 235ZM36 235Q36
286 52 331T100 409T175 461T276 480Q332 480 376 461T452 409T499 331T516 235Q516 184 500 139T452 61T377 9T276 -10Q220 -10 176 9T100 61T53 139T36 235ZM276 605L191 525H131L211 650H341L421 525H361L276 605Z" />
<glyph unicode="&#xf5;" glyph-name="otilde" horiz-adv-x="552" d="M381 235Q381 278 375 314T355 378T322 420T276 435Q250 435 230 420T197 378T178 315T171 235Q171 192 177 156T197 92T230 50T276 35Q302 35 322 50T355 92T374 155T381 235ZM36 235Q36 286
52 331T100 409T175 461T276 480Q332 480 376 461T452 409T499 331T516 235Q516 184 500 139T452 61T377 9T276 -10Q220 -10 176 9T100 61T53 139T36 235ZM158 536Q158 596 177 616T226 636Q243 636 255 630T278 616T298 602T318 596Q335 596 344 608T353 636H393Q393
576 375 556T326 536Q309 536 297 542T274 555T253 569T233 576Q216 576 207 564T198 536H158Z" />
<glyph unicode="&#xf6;" glyph-name="odieresis" horiz-adv-x="552" d="M381 235Q381 278 375 314T355 378T322 420T276 435Q250 435 230 420T197 378T178 315T171 235Q171 192 177 156T197 92T230 50T276 35Q302 35 322 50T355 92T374 155T381 235ZM36 235Q36
286 52 331T100 409T175 461T276 480Q332 480 376 461T452 409T499 331T516 235Q516 184 500 139T452 61T377 9T276 -10Q220 -10 176 9T100 61T53 139T36 235ZM242 591Q242 568 227 552T186 535Q160 535 145 551T130 591Q130 614 145 630T186 647Q212 647 227 631T242
591ZM422 591Q422 568 407 552T366 535Q340 535 325 551T310 591Q310 614 325 630T366 647Q392 647 407 631T422 591Z" />
<glyph unicode="&#xf7;" glyph-name="divide" horiz-adv-x="548" d="M504 297H44V362H504V297ZM330 481Q330 458 315 442T274 425Q248 425 233 441T218 481Q218 504 233 520T274 537Q300 537 315 521T330 481ZM330 179Q330 156 315 140T274 123Q248 123 233 139T218
179Q218 202 233 218T274 235Q300 235 315 219T330 179Z" />
<glyph unicode="&#xf8;" glyph-name="oslash" horiz-adv-x="552" d="M36 235Q36 286 52 331T100 409T175 461T276 480Q309 480 338 473T392 454L404 470H496L451 410Q483 377 499 332T516 235Q516 184 500 139T452 61T377 9T276 -10Q243 -10 214 -3T160 16L148
0H56L100 60Q69 93 53 138T36 235ZM381 235Q381 274 375 307L205 77Q218 57 235 46T276 35Q302 35 322 50T355 92T374 155T381 235ZM171 235Q171 215 172 197T176 162L346 392Q333 412 316 423T276 435Q250 435 230 420T197 378T178 315T171 235Z" />
<glyph unicode="&#xf9;" glyph-name="ugrave" horiz-adv-x="565" d="M70 340Q70 385 58 412T0 440H-10V470H110Q136 470 153 464T181 442T196 402T200 340V173Q200 96 222 66T285 35Q308 35 324 45T352 67Q365 81 375 100V470H505V0H420L385 45H380Q365 29 347
17Q331 6 308 -2T255 -10Q161 -10 116 33T70 174V340ZM155 640H274L316 500H261L155 640Z" />
<glyph unicode="&#xfa;" glyph-name="uacute" horiz-adv-x="565" d="M70 340Q70 385 58 412T0 440H-10V470H110Q136 470 153 464T181 442T196 402T200 340V173Q200 96 222 66T285 35Q308 35 324 45T352 67Q365 81 375 100V470H505V0H420L385 45H380Q365 29 347
17Q331 6 308 -2T255 -10Q161 -10 116 33T70 174V340ZM300 500H245L287 640H406L300 500Z" />
<glyph unicode="&#xfb;" glyph-name="ucircumflex" horiz-adv-x="565" d="M70 340Q70 385 58 412T0 440H-10V470H110Q136 470 153 464T181 442T196 402T200 340V173Q200 96 222 66T285 35Q308 35 324 45T352 67Q365 81 375 100V470H505V0H420L385 45H380Q365 29
347 17Q331 6 308 -2T255 -10Q161 -10 116 33T70 174V340ZM276 606L191 526H131L211 651H341L421 526H361L276 606Z" />
<glyph unicode="&#xfc;" glyph-name="udieresis" horiz-adv-x="565" d="M70 340Q70 385 58 412T0 440H-10V470H110Q136 470 153 464T181 442T196 402T200 340V173Q200 96 222 66T285 35Q308 35 324 45T352 67Q365 81 375 100V470H505V0H420L385 45H380Q365 29
347 17Q331 6 308 -2T255 -10Q161 -10 116 33T70 174V340ZM242 827Q242 804 227 788T186 771Q160 771 145 787T130 827Q130 850 145 866T186 883Q212 883 227 867T242 827ZM422 827Q422 804 407 788T366 771Q340 771 325 787T310 827Q310 850 325 866T366 883Q392
883 407 867T422 827Z" />
<glyph unicode="&#xfd;" glyph-name="yacute" horiz-adv-x="508" d="M290 -65Q275 -106 258 -132T222 -173T181 -194T132 -200H92V-165Q118 -165 139 -161T179 -145T211 -116T236 -68L257 -14L77 380Q44 453 -16 460V480H72Q117 480 151 459T202 400L317 148L439
470H492L290 -65ZM307 500H252L294 640H413L307 500Z" />
<glyph unicode="&#xfe;" glyph-name="thorn" horiz-adv-x="542" d="M60 530Q60 575 48 602T-10 630H-20V660H100Q126 660 143 654T171 632T186 592T190 530V445Q207 459 234 469T304 480Q355 480 392 462T454 412T491 335T504 235Q504 181 492 136T454 58T388
8T294 -10Q262 -10 236 -4T190 10V-190H60V530ZM269 435Q243 435 224 427T190 405V50Q208 43 226 39T259 35Q312 35 340 88T369 235Q369 329 342 382T269 435Z" />
<glyph unicode="&#xff;" glyph-name="ydieresis" horiz-adv-x="508" d="M290 -65Q275 -106 258 -132T222 -173T181 -194T132 -200H92V-165Q118 -165 139 -161T179 -145T211 -116T236 -68L257 -14L77 380Q44 453 -16 460V480H72Q117 480 151 459T202 400L317 148L439
470H492L290 -65ZM251 832Q251 809 236 793T195 776Q169 776 154 792T139 832Q139 855 154 871T195 888Q221 888 236 872T251 832ZM431 832Q431 809 416 793T375 776Q349 776 334 792T319 832Q319 855 334 871T375 888Q401 888 416 872T431 832Z" />
<glyph unicode="&#x2013;" glyph-name="endash" horiz-adv-x="622" d="M558 227H64V292H558V227Z" />
<glyph unicode="&#x2014;" glyph-name="emdash" horiz-adv-x="892" d="M828 227H64V292H828V227Z" />
<glyph unicode="&#x2018;" glyph-name="quoteleft" horiz-adv-x="216" d="M109 542Q138 542 154 525T170 481Q170 454 154 437T109 420Q76 420 60 444T43 498Q43 555 68 600T158 688L176 664Q164 656 150 644T123 616T102 581T94 539L109 542Z" />
<glyph unicode="&#x2019;" glyph-name="quoteright" horiz-adv-x="218" d="M115 558Q86 558 70 575T54 619Q54 646 70 663T115 680Q148 680 164 656T181 602Q181 545 156 500T66 412L48 436Q60 444 74 456T101 484T122 519T130 561L115 558Z" />
<glyph unicode="&#x201a;" glyph-name="quotesinglbase" horiz-adv-x="228" d="M112 -14Q83 -14 67 3T51 47Q51 74 67 91T112 108Q145 108 161 84T178 30Q178 -27 153 -72T63 -160L45 -136Q57 -128 71 -116T98 -88T119 -53T127 -11L112 -14Z" />
<glyph unicode="&#x201c;" glyph-name="quotedblleft" horiz-adv-x="398" d="M109 542Q138 542 154 525T170 481Q170 454 154 437T109 420Q76 420 60 444T43 498Q43 555 68 600T158 688L176 664Q164 656 150 644T123 616T102 581T94 539L109 542ZM291 542Q320
542 336 525T352 481Q352 454 336 437T291 420Q258 420 242 444T225 498Q225 555 250 600T340 688L358 664Q346 656 332 644T305 616T284 581T276 539L291 542Z" />
<glyph unicode="&#x201d;" glyph-name="quotedblright" horiz-adv-x="400" d="M297 558Q268 558 252 575T236 619Q236 646 252 663T297 680Q330 680 346 656T363 602Q363 545 338 500T248 412L230 436Q242 444 256 456T283 484T304 519T312 561L297 558ZM115 558Q86
558 70 575T54 619Q54 646 70 663T115 680Q148 680 164 656T181 602Q181 545 156 500T66 412L48 436Q60 444 74 456T101 484T122 519T130 561L115 558Z" />
<glyph unicode="&#x201e;" glyph-name="quotedblbase" horiz-adv-x="410" d="M112 -14Q83 -14 67 3T51 47Q51 74 67 91T112 108Q145 108 161 84T178 30Q178 -27 153 -72T63 -160L45 -136Q57 -128 71 -116T98 -88T119 -53T127 -11L112 -14ZM294 -14Q265 -14 249
3T233 47Q233 74 249 91T294 108Q327 108 343 84T360 30Q360 -27 335 -72T245 -160L227 -136Q239 -128 253 -116T280 -88T301 -53T309 -11L294 -14Z" />
<glyph unicode="&#x2022;" glyph-name="bullet" horiz-adv-x="350" d="M175 453Q205 453 229 444T272 419T300 380T310 330Q310 303 300 281T272 242T230 216T175 207Q145 207 121 216T78 241T50 280T40 330Q40 357 50 379T78 418T120 444T175 453Z" />
<glyph unicode="&#x2039;" glyph-name="guilsinglleft" horiz-adv-x="294" d="M253 30H189L31 225L189 420H253L156 226L253 30Z" />
<glyph unicode="&#x203a;" glyph-name="guilsinglright" horiz-adv-x="294" d="M138 226L41 420H105L263 225L105 30H41L138 226Z" />
</font>
</defs>
</svg>
